<svg xmlns="http://www.w3.org/2000/svg" viewBox="0 0 138.72 250"><defs><style>.cls-1{fill:#0071bc;}</style></defs><g id="Layer_2" data-name="Layer 2"><g id="Layer_1-2" data-name="Layer 1"><g id="Blockchain"><path class="cls-1" d="M65.72,188.66v35.05H59.15a11,11,0,0,0-11,11H39.43a11,11,0,0,0-10.95-11H21.91V188.66m92,0v35.05h-6.57a11,11,0,0,0-11,11H87.63a11,11,0,0,0-11-11H70.1V188.66m-52.57,0v35.05H11A11,11,0,0,0,0,234.67v4.38A11,11,0,0,0,11,250H28.48a11,11,0,0,0,11-10.95h8.76a11,11,0,0,0,11,10.95H76.67a11,11,0,0,0,11-10.95h8.76a11,11,0,0,0,11,10.95h17.53a11,11,0,0,0,10.95-10.95v-4.38a11,11,0,0,0-10.95-11h-6.58V188.66m-89.81,57H11a6.56,6.56,0,0,1-6.57-6.57h0v-4.38A6.56,6.56,0,0,1,11,228.09H28.48a6.56,6.56,0,0,1,6.57,6.58H28.48a2.19,2.19,0,1,0,0,4.38h6.57a6.56,6.56,0,0,1-6.57,6.57Zm48.19,0H59.15a6.56,6.56,0,0,1-6.57-6.57h6.57a2.19,2.19,0,0,0,0-4.38H52.58a6.56,6.56,0,0,1,6.57-6.58H76.67a6.56,6.56,0,0,1,6.57,6.58H76.67a2.19,2.19,0,1,0,0,4.38h6.57a6.56,6.56,0,0,1-6.57,6.57Zm48.2-17.53a6.56,6.56,0,0,1,6.57,6.58v4.38a6.56,6.56,0,0,1-6.57,6.57H107.34a6.56,6.56,0,0,1-6.57-6.57h6.57a2.19,2.19,0,0,0,0-4.38h-6.57a6.56,6.56,0,0,1,6.57-6.58Z"/></g><path class="cls-1" d="M115.44,0H26.36A23.31,23.31,0,0,0,3.07,23.28V167.77a23.32,23.32,0,0,0,23.29,23.28h89.08a23.31,23.31,0,0,0,23.28-23.28V23.28A23.31,23.31,0,0,0,115.44,0ZM133,167.77a17.62,17.62,0,0,1-17.6,17.6H26.36a17.63,17.63,0,0,1-17.61-17.6V23.28A17.63,17.63,0,0,1,26.36,5.67h89.08A17.62,17.62,0,0,1,133,23.28Z"/><path class="cls-1" d="M114.56,15.68a19.88,19.88,0,0,0-6.19-1H33.43a20,20,0,0,0-20,20V156.3a20,20,0,0,0,20,20h75a20.05,20.05,0,0,0,20-20V69.23a2.84,2.84,0,1,0-5.68,0V156.3a14.36,14.36,0,0,1-14.36,14.37H33.43A14.4,14.4,0,0,1,19.06,156.3V34.75A14.32,14.32,0,0,1,29,21.08a14.06,14.06,0,0,1,4.43-.7h74.94a14.47,14.47,0,0,1,4.44.7,14.32,14.32,0,0,1,9.92,13.67V57.88a2.84,2.84,0,0,0,5.68,0V34.75A20,20,0,0,0,114.56,15.68Z"/><path class="cls-1" d="M100.08,36.68H41.71a16.17,16.17,0,0,0,0,32.34h58.37a16.17,16.17,0,1,0,0-32.34ZM31.21,52.85a10.5,10.5,0,1,1,10.5,10.5A10.51,10.51,0,0,1,31.21,52.85Zm68.87,10.5H54a16.15,16.15,0,0,0,0-21h46.08a10.5,10.5,0,0,1,0,21Z"/><path class="cls-1" d="M100.08,76.9H41.71a16.17,16.17,0,0,0,0,32.34h58.37a16.17,16.17,0,1,0,0-32.34ZM31.21,93.07a10.5,10.5,0,1,1,10.5,10.5A10.51,10.51,0,0,1,31.21,93.07Zm68.87,10.5H54a16.15,16.15,0,0,0,0-21h46.08a10.5,10.5,0,0,1,0,21Z"/><path class="cls-1" d="M51.72,148.48a2.84,2.84,0,0,0,2.84,2.84h45.52a16.18,16.18,0,0,0,0-32.35H41.71a16.18,16.18,0,0,0,0,32.35h1.5a2.84,2.84,0,0,0,0-5.68h-1.5a10.5,10.5,0,0,1,0-21H87.79a16.15,16.15,0,0,0,0,21H54.56A2.84,2.84,0,0,0,51.72,148.48Zm37.86-13.34a10.5,10.5,0,1,1,10.5,10.5A10.51,10.51,0,0,1,89.58,135.14Z"/></g></g></svg>