<svg id="Layer_1" data-name="Layer 1" xmlns="http://www.w3.org/2000/svg" viewBox="0 0 274.01 505.14"><defs><style>.cls-1{fill:#0071bc;}</style></defs><g id="Layer_2" data-name="Layer 2"><g id="Layer_1-2" data-name="Layer 1-2"><g id="Blockchain"><path class="cls-1" d="M129.76,381.24V452h-13a22,22,0,0,0-21.71,22.22H77.85A22,22,0,0,0,56.23,452h-13v-70.8m181.64,0V452h-13a22,22,0,0,0-21.72,22.22H173A22,22,0,0,0,151.3,452H138.4v-70.8m-103.79,0V452H21.72A22,22,0,0,0,0,474.18V483a22,22,0,0,0,21.72,22.12H56.23A22,22,0,0,0,78,483H95.24A22,22,0,0,0,117,505.14h34.42A22,22,0,0,0,173.09,483h17.3a22,22,0,0,0,21.72,22.12h34.61A22,22,0,0,0,268.34,483v-8.84A22,22,0,0,0,246.72,452h-13V381.24M56.41,496.38H21.72a13.1,13.1,0,0,1-13-13.23v0h0v-8.85a13.1,13.1,0,0,1,12.83-13.37H56.23a13.1,13.1,0,0,1,13,13.23v.06h-13a4.42,4.42,0,0,0,0,8.84h13A13.12,13.12,0,0,1,56.27,496.3h0Zm95.14,0H116.78a13.11,13.11,0,0,1-13-13.23v0h13a4.43,4.43,0,0,0,0-8.85h-13A13.1,13.1,0,0,1,116.72,461h34.66a13.1,13.1,0,0,1,13,13.23v.06h-13a4.43,4.43,0,0,0,0,8.85h13a13.11,13.11,0,0,1-12.94,13.27h.14ZM246.72,461a13.1,13.1,0,0,1,13,13.23v8.91a13.11,13.11,0,0,1-12.93,13.27H211.93a13.11,13.11,0,0,1-13-13.23v0h13a4.43,4.43,0,0,0,0-8.85H199A13.1,13.1,0,0,1,211.87,461h34.85Z"/></g><path class="cls-1" d="M227,.14H47.05a47.09,47.09,0,0,0-47,47V339a47.09,47.09,0,0,0,47.05,47H227a47.07,47.07,0,0,0,47-47V47.17A47.08,47.08,0,0,0,227,.14ZM262.46,339a35.59,35.59,0,0,1-35.55,35.55H47.05A35.62,35.62,0,0,1,11.47,339V47.17A35.62,35.62,0,0,1,47.05,11.6H227a35.59,35.59,0,0,1,35.47,35.57Z"/><path class="cls-1" d="M225.21,31.82a40,40,0,0,0-12.5-2H61.33a40.39,40.39,0,0,0-40.4,40.4V315.87a40.4,40.4,0,0,0,40.4,40.4h151.5a40.51,40.51,0,0,0,40.4-40.4V140a5.74,5.74,0,1,0-11.48,0V315.87a29,29,0,0,1-29,29H61.33a29.09,29.09,0,0,1-29-29V70.34A28.94,28.94,0,0,1,52.38,42.72a28.63,28.63,0,0,1,8.95-1.41H212.71a29.29,29.29,0,0,1,9,1.41,28.93,28.93,0,0,1,20,27.62v46.72a5.74,5.74,0,0,0,11.48,0h0V70.34A40.41,40.41,0,0,0,225.21,31.82Z"/><path class="cls-1" d="M196,74.24H78.05a32.66,32.66,0,1,0,0,65.32H196a32.66,32.66,0,0,0,0-65.32ZM56.84,106.9a21.21,21.21,0,1,1,21.21,21.21h0A21.23,21.23,0,0,1,56.84,106.9ZM196,128.11H102.88a32.62,32.62,0,0,0,0-42.42H196a21.21,21.21,0,0,1,0,42.42Z"/><path class="cls-1" d="M196,155.48H78.05a32.67,32.67,0,0,0,0,65.33H196a32.67,32.67,0,1,0,0-65.33ZM56.84,188.14a21.21,21.21,0,1,1,21.21,21.21A21.22,21.22,0,0,1,56.84,188.14ZM196,209.35H102.88a32.62,32.62,0,0,0,0-42.42H196a21.21,21.21,0,1,1,0,42.42Z"/><path class="cls-1" d="M98.27,300.07a5.74,5.74,0,0,0,5.74,5.74h92a32.69,32.69,0,0,0,0-65.35H78.05a32.69,32.69,0,0,0,0,65.35h3a5.74,5.74,0,0,0,0-11.47h-3a21.21,21.21,0,0,1,0-42.42h93.08a32.64,32.64,0,0,0,0,42.42H104A5.73,5.73,0,0,0,98.27,300.07Zm76.48-26.94A21.21,21.21,0,1,1,196,294.34h0A21.23,21.23,0,0,1,174.75,273.13Z"/></g></g></svg>