<?xml version="1.0" encoding="utf-8"?>
<!-- Generator: Adobe Illustrator 24.1.3, SVG Export Plug-In . SVG Version: 6.00 Build 0)  -->
<svg version="1.1" id="Capa_1" xmlns="http://www.w3.org/2000/svg" xmlns:xlink="http://www.w3.org/1999/xlink" x="0px" y="0px"
	 viewBox="0 0 512 512" style="enable-background:new 0 0 512 512;" xml:space="preserve">
<style type="text/css">
	.st0{fill:#0071BC;}
</style>
<g>
	<g>
		<path class="st0" d="M456.4,0H79.6C62.2,0,48.1,14.2,48.1,31.5v8.5h-8.5C31,40.1,24,47,24,55.6v16c0,8.6,7,15.5,15.5,15.5h8.5
			v81.2h-8.5c-8.6,0-15.5,7-15.5,15.5v16c0,8.6,7,15.5,15.5,15.5h8.5v81.2h-8.5c-8.6,0-15.5,7-15.5,15.5v16c0,8.6,7,15.5,15.5,15.5
			h8.5v81.2h-8.5c-8.6,0-15.5,7-15.5,15.5v16c0,8.6,7,15.5,15.5,15.5h8.5v8.5c0,17.4,14.2,31.5,31.5,31.5h376.8
			c17.4,0,31.5-14.2,31.5-31.5V31.5C488,14.2,473.8,0,456.4,0L456.4,0z M39,71.6v-16c0-0.3,0.2-0.5,0.5-0.5h32.1
			c0.3,0,0.5,0.2,0.5,0.5v16c0,0.3-0.2,0.5-0.5,0.5H39.6C39.3,72.1,39,71.9,39,71.6z M39,199.9v-16c0-0.3,0.2-0.5,0.5-0.5h32.1
			c0.3,0,0.5,0.2,0.5,0.5v16c0,0.3-0.2,0.5-0.5,0.5H39.6C39.3,200.4,39,200.2,39,199.9z M39,328.1v-16c0-0.3,0.2-0.5,0.5-0.5h32.1
			c0.3,0,0.5,0.2,0.5,0.5v16c0,0.3-0.2,0.5-0.5,0.5H39.6C39.3,328.7,39,328.4,39,328.1z M39,456.4v-16c0-0.3,0.2-0.5,0.5-0.5h32.1
			c0.3,0,0.5,0.2,0.5,0.5v16c0,0.3-0.2,0.5-0.5,0.5H39.6C39.3,456.9,39,456.7,39,456.4z M473,480.5c0,9.1-7.4,16.5-16.5,16.5H119.2
			V79.6c0-4.1-3.4-7.5-7.5-7.5s-7.5,3.4-7.5,7.5V497H79.6c-9.1,0-16.5-7.4-16.5-16.5v-8.5h8.5c8.6,0,15.5-7,15.5-15.5v-16
			c0-8.6-7-15.5-15.5-15.5h-8.5v-81.2h8.5c8.6,0,15.5-7,15.5-15.5v-16c0-8.6-7-15.5-15.5-15.5h-8.5v-81.2h8.5
			c8.6,0,15.5-7,15.5-15.5v-16c0-8.6-7-15.5-15.5-15.5h-8.5V87.1h8.5c8.6,0,15.5-7,15.5-15.5v-16c0-8.6-7-15.5-15.5-15.5h-8.5v-8.5
			c0-9.1,7.4-16.5,16.5-16.5h24.6v32.6c0,4.1,3.4,7.5,7.5,7.5s7.5-3.4,7.5-7.5V15h337.2c9.1,0,16.5,7.4,16.5,16.5L473,480.5
			L473,480.5z"/>
		<path class="st0" d="M256.5,223.9c0,21.8,17.7,39.6,39.6,39.6s39.6-17.7,39.6-39.6c0-21.8-17.7-39.6-39.6-39.6
			S256.5,202.1,256.5,223.9z M320.6,223.9c0,13.5-11,24.6-24.6,24.6s-24.6-11-24.6-24.6s11-24.6,24.6-24.6S320.6,210.4,320.6,223.9z
			"/>
		<path class="st0" d="M387,177.2c-3.3,2.5-3.9,7.2-1.4,10.5c15.2,19.9,23.2,43.5,23.2,68.3c0,37.9-18.8,71.4-47.5,91.9l-12.6-37.7
			c-4.3-12.9-16.3-21.6-29.9-21.6h-45.5c-13.6,0-25.6,8.7-29.9,21.6l-12.6,37.7c-28.7-20.5-47.5-54-47.5-91.9
			c0-62.2,50.6-112.7,112.7-112.7c24.8,0,48.4,8,68.3,23.2c3.3,2.5,8,1.9,10.5-1.4c2.5-3.3,1.9-8-1.4-10.5
			c-22.5-17.2-49.3-26.3-77.4-26.3c-70.4,0-127.7,57.3-127.7,127.7s57.3,127.7,127.7,127.7c70.4,0,127.7-57.3,127.7-127.7
			c0-28.1-9.1-54.9-26.3-77.4C395,175.3,390.3,174.7,387,177.2L387,177.2z M244,355.9l13.7-41c2.3-6.8,8.6-11.3,15.7-11.3h45.5
			c7.1,0,13.4,4.5,15.7,11.3l13.7,41c-15.6,8.2-33.3,12.8-52.1,12.8S259.6,364.1,244,355.9L244,355.9z"/>
	</g>
</g>
</svg>
