<svg xmlns="http://www.w3.org/2000/svg" xmlns:xlink="http://www.w3.org/1999/xlink" viewBox="0 0 1219.38 2167"><defs><style>.cls-1,.cls-2{fill:none;}.cls-2,.cls-3{stroke:#3f2cbf;stroke-miterlimit:10;}.cls-3{fill:url(#New_Pattern);}</style><pattern id="New_Pattern" data-name="New Pattern" width="65" height="112.58" patternUnits="userSpaceOnUse" viewBox="0 0 65 112.58"><rect class="cls-1" width="65" height="112.58"/><polygon class="cls-2" points="33 94.11 33 131.06 65 149.53 97 131.06 97 94.11 65 75.63 33 94.11"/><polygon class="cls-2" points="-32 94.11 -32 131.06 0 149.53 32 131.06 32 94.11 0 75.63 -32 94.11"/><polygon class="cls-2" points="0.5 37.82 0.5 74.77 32.5 93.24 64.5 74.77 64.5 37.82 32.5 19.34 0.5 37.82"/><polygon class="cls-2" points="33 -18.48 33 18.48 65 36.95 97 18.48 97 -18.48 65 -36.95 33 -18.48"/><polygon class="cls-2" points="-32 -18.48 -32 18.48 0 36.95 32 18.48 32 -18.48 0 -36.95 -32 -18.48"/></pattern></defs><g id="Layer_2" data-name="Layer 2"><g id="Layer_1-2" data-name="Layer 1"><rect class="cls-3" x="0.5" y="0.5" width="1218.38" height="2166"/></g></g></svg>