<?xml version="1.0" encoding="utf-8"?>
<!-- Generator: Adobe Illustrator 23.1.1, SVG Export Plug-In . SVG Version: 6.00 Build 0)  -->
<svg version="1.1" id="Capa_1" xmlns="http://www.w3.org/2000/svg" xmlns:xlink="http://www.w3.org/1999/xlink" x="0px" y="0px"
	 viewBox="0 0 512 512" style="enable-background:new 0 0 512 512;" xml:space="preserve">
<style type="text/css">
	.st0{fill:#0066CC;}
</style>
<g>
	<path class="st0" d="M248.5,74.9v53.9c0,4.1,3.4,7.5,7.5,7.5s7.5-3.4,7.5-7.5V74.9c17.3-3.5,30.3-18.8,30.3-37.1
		C293.8,17,276.8,0,256,0s-37.8,17-37.8,37.8C218.2,56.1,231.2,71.4,248.5,74.9z M256,15c12.6,0,22.8,10.2,22.8,22.8
		S268.6,60.6,256,60.6s-22.8-10.2-22.8-22.8S243.4,15,256,15z"/>
	<path class="st0" d="M400.3,348.3c-11.6,0-22.4,3.8-31,10.3l-18-18c-2.9-2.9-7.7-2.9-10.6,0s-2.9,7.7,0,10.6l18,18
		c-6.5,8.7-10.3,19.4-10.3,31c0,28.6,23.3,51.9,51.9,51.9s51.9-23.3,51.9-51.9S428.9,348.3,400.3,348.3L400.3,348.3z M400.3,437.2
		c-20.4,0-36.9-16.6-36.9-36.9s16.6-36.9,36.9-36.9s36.9,16.6,36.9,36.9S420.7,437.2,400.3,437.2z"/>
	<path class="st0" d="M111.7,163.7c11.6,0,22.4-3.8,31-10.3l18,18c1.5,1.5,3.4,2.2,5.3,2.2s3.8-0.7,5.3-2.2c2.9-2.9,2.9-7.7,0-10.6
		l-18-18c6.5-8.7,10.3-19.4,10.3-31c0-28.6-23.3-51.9-51.9-51.9s-51.9,23.3-51.9,51.9S83.1,163.7,111.7,163.7L111.7,163.7z
		 M111.7,74.8c20.4,0,36.9,16.6,36.9,36.9s-16.6,36.9-36.9,36.9s-36.9-16.6-36.9-36.9S91.3,74.8,111.7,74.8z"/>
	<path class="st0" d="M263.5,437.1v-53.9c0-4.1-3.4-7.5-7.5-7.5s-7.5,3.4-7.5,7.5v53.9c-17.3,3.5-30.3,18.8-30.3,37.1
		c0,20.8,17,37.8,37.8,37.8s37.8-17,37.8-37.8C293.8,455.9,280.8,440.6,263.5,437.1z M256,497c-12.6,0-22.8-10.2-22.8-22.8
		s10.2-22.8,22.8-22.8c12.6,0,22.8,10.2,22.8,22.8S268.6,497,256,497z"/>
	<path class="st0" d="M474.2,218.2c-18.3,0-33.6,13-37.1,30.3h-53.9c-4.1,0-7.5,3.4-7.5,7.5s3.4,7.5,7.5,7.5h53.9
		c3.5,17.3,18.8,30.3,37.1,30.3c20.8,0,37.8-17,37.8-37.8S495,218.2,474.2,218.2z M474.2,278.8c-12.6,0-22.8-10.2-22.8-22.8
		s10.2-22.8,22.8-22.8S497,243.4,497,256C497,268.6,486.8,278.8,474.2,278.8z"/>
	<path class="st0" d="M74.9,263.5h53.9c4.1,0,7.5-3.4,7.5-7.5s-3.4-7.5-7.5-7.5H74.9c-3.5-17.3-18.8-30.3-37.1-30.3
		C17,218.2,0,235.2,0,256s17,37.8,37.8,37.8C56.1,293.8,71.4,280.8,74.9,263.5z M37.8,278.8C25.2,278.8,15,268.6,15,256
		s10.2-22.8,22.8-22.8s22.8,10.2,22.8,22.8C60.6,268.6,50.4,278.8,37.8,278.8z"/>
	<path class="st0" d="M346,173.5c1.9,0,3.8-0.7,5.3-2.2l18-18c8.7,6.5,19.4,10.3,31,10.3c28.6,0,51.9-23.3,51.9-51.9
		s-23.3-51.9-51.9-51.9s-51.9,23.3-51.9,51.9c0,11.6,3.8,22.4,10.3,31l-18,18c-2.9,2.9-2.9,7.7,0,10.6
		C342.2,172.8,344.1,173.5,346,173.5L346,173.5z M400.3,74.8c20.4,0,36.9,16.6,36.9,36.9s-16.6,36.9-36.9,36.9s-36.9-16.6-36.9-36.9
		S379.9,74.8,400.3,74.8z"/>
	<path class="st0" d="M160.7,340.7l-18,18c-8.7-6.5-19.4-10.3-31-10.3c-28.6,0-51.9,23.3-51.9,51.9s23.3,51.9,51.9,51.9
		s51.9-23.3,51.9-51.9c0-11.6-3.8-22.4-10.3-31l18-18c2.9-2.9,2.9-7.7,0-10.6C168.4,337.8,163.6,337.8,160.7,340.7z M111.7,437.2
		c-20.4,0-36.9-16.6-36.9-36.9s16.6-36.9,36.9-36.9s36.9,16.6,36.9,36.9S132.1,437.2,111.7,437.2z"/>
</g>
<g>
	<g>
		<g>
			<g>
				<path class="st0" d="M326.6,138.3H185.4c-8.7,0-15.7,7-15.7,15.7V358c0,8.7,7,15.7,15.7,15.7h141.3c8.7,0,15.7-7,15.7-15.7V154
					C342.3,145.3,335.3,138.3,326.6,138.3z M334.5,358c0,4.3-3.5,7.8-7.8,7.8H185.4c-4.3,0-7.8-3.5-7.8-7.8V154
					c0-4.3,3.5-7.8,7.8-7.8h141.3c4.3,0,7.8,3.5,7.8,7.8V358z"/>
				<path class="st0" d="M236.4,224.6c0,10.8,8.8,19.6,19.6,19.6s19.6-8.8,19.6-19.6c0-10.8-8.8-19.6-19.6-19.6
					C245.2,205,236.4,213.8,236.4,224.6z M260.5,213.7c4.4,1.8,7.3,6.1,7.3,10.9c0,6.5-5.3,11.8-11.8,11.8c-4.8,0-9.1-2.9-10.9-7.3
					c-1.8-4.4-0.8-9.5,2.6-12.8S256.1,211.9,260.5,213.7z"/>
				<path class="st0" d="M213.4,231.8c-0.4-2.1-2.4-3.6-4.5-3.2s-3.6,2.4-3.2,4.5c0.5,2.9,1.2,5.7,2.2,8.5c0.7,2,3,3.1,5,2.4
					c2-0.7,3.1-3,2.4-5C214.5,236.6,213.9,234.2,213.4,231.8z"/>
				<path class="st0" d="M259.9,177.5c0-2.2-1.8-3.9-3.9-3.9c-24.9-0.1-46.2,17.9-50.3,42.5c-0.4,2.1,1.1,4.2,3.2,4.5
					c0.2,0,0.4,0.1,0.7,0.1c1.9,0,3.5-1.4,3.9-3.3c3.5-20.8,21.5-36,42.6-36C258.2,181.4,259.9,179.7,259.9,177.5z"/>
				<path class="st0" d="M322.6,221c-1.7-32.3-26.4-58.8-58.5-62.7s-62.5,15.8-71.9,46.8c-9.4,31,4.7,64.2,33.6,78.9
					c-2.1,1.1-4.2,2.3-6.1,3.4h-22.6c-6.5,0-11.8,5.3-11.8,11.8v47.1c0,6.5,5.3,11.8,11.8,11.8h47.1c6.5,0,11.8-5.3,11.8-11.8v-23
					c5.7-10.9,10.7-22.2,15-33.8C302.5,282.3,324.3,253.4,322.6,221z M197.1,224.6c0-30.1,22.7-55.4,52.6-58.6
					c29.9-3.2,57.5,16.7,63.8,46.1c6.4,29.4-10.5,58.9-39.1,68.3c2.3-6.4,4-11.2,4.5-12.7c0.5-1.4,0.1-3-1-4.1s-2.7-1.4-4.1-0.8
					c-3.3,1.3-22.3,8.7-39,16.6C212.2,270.7,197.2,248.9,197.1,224.6z M248.2,346.3c0,2.2-1.8,3.9-3.9,3.9h-47.1
					c-2.2,0-3.9-1.8-3.9-3.9v-47.1c0-2.2,1.8-3.9,3.9-3.9h12.3c-4.9,5.3-7.8,12.1-8.3,19.3c-0.6,7.2,1.9,14.3,6.8,19.6
					c4.9,5.3,11.9,8.2,19.1,8.1c0.6,0,1.2,0,1.8-0.1c7.2-0.5,14-3.4,19.3-8.3V346.3z M243.9,327.2c-4.1,4.2-9.7,6.8-15.6,7.3
					c-5.3,0.5-10.5-1.4-14.3-5.1c-3.8-3.8-5.6-9-5.1-14.3c0.4-5.9,3-11.5,7.3-15.6c4.9-4.9,21.1-12.7,36.2-19.3l0,0l10.3,9
					C256.5,305,248.9,322.2,243.9,327.2z M265.7,281.4l-5.3-4.6c2.9-1.2,5.7-2.4,8.3-3.4C267.8,275.8,266.8,278.5,265.7,281.4z"/>
				<path class="st0" d="M187.8,161.5c0.5,0.2,1,0.3,1.5,0.3c1,0,2-0.4,2.8-1.1s1.1-1.7,1.1-2.8c0-0.5-0.1-1-0.3-1.5
					c-0.2-0.5-0.5-0.9-0.8-1.3c-1.1-1.1-2.8-1.4-4.3-0.8c-0.5,0.2-0.9,0.5-1.3,0.8c-0.3,0.4-0.6,0.8-0.8,1.3c-0.2,0.5-0.3,1-0.3,1.5
					c0,1,0.4,2,1.1,2.8C186.9,161,187.3,161.3,187.8,161.5z"/>
				<path class="st0" d="M325.5,155.1c-1.6-1.5-4-1.5-5.6,0c-0.3,0.4-0.6,0.8-0.8,1.3c-0.2,0.5-0.3,1-0.3,1.5c0,2.2,1.8,3.9,3.9,3.9
					c2.2,0,3.9-1.8,3.9-3.9c0-0.5-0.1-1-0.3-1.5C326.1,155.9,325.8,155.5,325.5,155.1z"/>
				<path class="st0" d="M321.2,350.5c-0.5,0.2-0.9,0.5-1.3,0.8c-1.5,1.5-1.5,4,0,5.6c0.4,0.3,0.8,0.6,1.3,0.8
					c0.5,0.2,1,0.3,1.5,0.3c1.6,0,3-1,3.6-2.4c0.6-1.5,0.3-3.2-0.8-4.3C324.4,350.2,322.7,349.9,321.2,350.5z"/>
				<path class="st0" d="M253.2,227.4c0.8,0.7,1.7,1.1,2.8,1.1c0.3,0,0.5,0,0.8-0.1c0.2,0,0.5-0.1,0.7-0.2c0.3-0.1,0.5-0.2,0.7-0.4
					c0.2-0.2,0.4-0.3,0.6-0.5c0.3-0.4,0.6-0.8,0.8-1.3c0.2-0.5,0.3-1,0.3-1.5c0-1-0.4-2-1.1-2.8c-0.2-0.2-0.4-0.3-0.6-0.5
					c-0.2-0.1-0.5-0.3-0.7-0.4c-0.2-0.1-0.5-0.2-0.7-0.2c-0.5-0.1-1.1-0.1-1.6,0c-0.2,0-0.5,0.1-0.7,0.2c-0.2,0.1-0.5,0.2-0.7,0.4
					c-0.2,0.2-0.4,0.3-0.6,0.5c-0.7,0.8-1.1,1.7-1.1,2.8c0,0.5,0.1,1,0.3,1.5C252.6,226.6,252.9,227,253.2,227.4z"/>
				<path class="st0" d="M318.8,310.9h-43.2c-4.3,0-7.8,3.5-7.8,7.8v15.7c0,4.3,3.5,7.8,7.8,7.8h43.2c4.3,0,7.8-3.5,7.8-7.8v-15.7
					C326.6,314.5,323.1,310.9,318.8,310.9z M275.6,334.5v-15.7h43.2l0,15.7H275.6z"/>
			</g>
		</g>
	</g>
</g>
</svg>
