<svg xmlns="http://www.w3.org/2000/svg" xmlns:xlink="http://www.w3.org/1999/xlink" viewBox="0 0 594 672"><defs><style>.cls-1{fill:url(#New_Gradient_Swatch_1);}.cls-2{fill:none;stroke-linejoin:round;stroke-width:25px;fill-rule:evenodd;stroke:url(#radial-gradient);}</style><radialGradient id="New_Gradient_Swatch_1" cx="297" cy="337" r="316.06" gradientUnits="userSpaceOnUse"><stop offset="0" stop-color="#0071bc"/><stop offset="0.29" stop-color="#006ebd"/><stop offset="0.53" stop-color="#0064bf"/><stop offset="0.74" stop-color="#0053c3"/><stop offset="0.94" stop-color="#003bc9"/><stop offset="1" stop-color="#0033cb"/></radialGradient><radialGradient id="radial-gradient" cx="297.54" cy="339.86" r="217.46" gradientUnits="userSpaceOnUse"><stop offset="0" stop-color="#0071bc"/><stop offset="0.5" stop-color="#006fbc"/><stop offset="0.67" stop-color="#0068be"/><stop offset="0.8" stop-color="#005dc1"/><stop offset="0.9" stop-color="#004cc5"/><stop offset="0.99" stop-color="#0036ca"/><stop offset="1" stop-color="#0033cb"/></radialGradient></defs><g id="Layer_4" data-name="Layer 4"><path class="cls-1" d="M298.17,1.87v5a24.4,24.4,0,0,1,12.14,3.23L575.48,162a24.5,24.5,0,0,1,12.28,21.27l-1,305.62A24.51,24.51,0,0,1,574.55,510L308.05,663.86a24.45,24.45,0,0,1-24.36,0L18.52,512A24.5,24.5,0,0,1,6.24,490.69l1-305.62A24.51,24.51,0,0,1,19.45,164L286,10.14a24.46,24.46,0,0,1,12.21-3.27v-5m0,0a29.37,29.37,0,0,0-14.71,3.94L17,159.67A29.45,29.45,0,0,0,2.24,185.06l-1,305.61A29.45,29.45,0,0,0,16,516.3L281.21,668.24a29.44,29.44,0,0,0,29.34,0l266.5-153.86a29.45,29.45,0,0,0,14.71-25.39l1-305.61A29.45,29.45,0,0,0,578,157.7L312.79,5.76a29.26,29.26,0,0,0-14.63-3.89Z"/><polyline class="cls-2" points="373.27 164.65 297.39 121.04 107.39 229.18 107.39 448.45 296.79 558.39 297.09 558.69 487.69 448.75 487.39 448.45 487.39 229.18 296.79 338.52 296.79 421.57"/></g></svg>