<svg xmlns="http://www.w3.org/2000/svg" viewBox="0 0 594 672"><defs><style>.cls-1{fill:#f6f6f6;}.cls-2{fill:none;stroke:#f6f6f6;stroke-linejoin:round;stroke-width:25px;fill-rule:evenodd;}</style></defs><g id="Layer_4" data-name="Layer 4"><path class="cls-1" d="M298.17.87v10a19.34,19.34,0,0,1,9.65,2.57L573,165.38a19.46,19.46,0,0,1,9.77,16.92l-1,305.61a19.51,19.51,0,0,1-9.71,16.76L305.55,658.53a19.44,19.44,0,0,1-19.37,0L21,506.62a19.46,19.46,0,0,1-9.77-16.92l1-305.61A19.48,19.48,0,0,1,22,167.33L288.45,13.47a19.48,19.48,0,0,1,9.71-2.6V.87m0,0a29.37,29.37,0,0,0-14.71,3.94L17,158.67A29.45,29.45,0,0,0,2.24,184.06l-1,305.61A29.45,29.45,0,0,0,16,515.3L281.21,667.24a29.44,29.44,0,0,0,29.34,0l266.5-153.86a29.45,29.45,0,0,0,14.71-25.39l1-305.61A29.45,29.45,0,0,0,578,156.7L312.79,4.76A29.26,29.26,0,0,0,298.16.87Z"/><polyline class="cls-2" points="373.27 163.65 297.39 120.04 107.39 228.18 107.39 447.45 296.79 557.39 297.09 557.69 487.69 447.75 487.39 447.45 487.39 228.18 296.79 337.52 296.79 420.57"/></g></svg>