<svg xmlns="http://www.w3.org/2000/svg" viewBox="0 0 594 672"><defs><style>.cls-1{fill:#f6f6f6;}.cls-2{fill:none;stroke:#f6f6f6;stroke-linejoin:round;stroke-width:25px;fill-rule:evenodd;}</style></defs><g id="Layer_4" data-name="Layer 4"><path class="cls-1" d="M298.17.87v5A24.4,24.4,0,0,1,310.31,9.1L575.48,161a24.5,24.5,0,0,1,12.28,21.27l-1,305.62A24.51,24.51,0,0,1,574.55,509L308.05,662.86a24.45,24.45,0,0,1-24.36,0L18.52,511A24.5,24.5,0,0,1,6.24,489.69l1-305.62A24.51,24.51,0,0,1,19.45,163L286,9.14a24.46,24.46,0,0,1,12.21-3.27v-5m0,0a29.37,29.37,0,0,0-14.71,3.94L17,158.67A29.45,29.45,0,0,0,2.24,184.06l-1,305.61A29.45,29.45,0,0,0,16,515.3L281.21,667.24a29.44,29.44,0,0,0,29.34,0l266.5-153.86a29.45,29.45,0,0,0,14.71-25.39l1-305.61A29.45,29.45,0,0,0,578,156.7L312.79,4.76A29.26,29.26,0,0,0,298.16.87Z"/><polyline class="cls-2" points="373.27 163.65 297.39 120.04 107.39 228.18 107.39 447.45 296.79 557.39 297.09 557.69 487.69 447.75 487.39 447.45 487.39 228.18 296.79 337.52 296.79 420.57"/></g></svg>