<svg id="Layer_1" data-name="Layer 1" xmlns="http://www.w3.org/2000/svg" xmlns:xlink="http://www.w3.org/1999/xlink" viewBox="0 0 600 673"><defs><style>.cls-1{fill:url(#radial-gradient);}.cls-2{fill:#f6f6f6;}.cls-3{fill:none;stroke:#f6f6f6;stroke-linejoin:round;stroke-width:15px;fill-rule:evenodd;}</style><radialGradient id="radial-gradient" cx="-248.67" cy="345.16" r="253.37" gradientTransform="matrix(1.26, -0.02, 0.01, 1.25, 611.52, -100.5)" gradientUnits="userSpaceOnUse"><stop offset="0" stop-color="#0071bc"/><stop offset="0.28" stop-color="#006eba"/><stop offset="0.46" stop-color="#0266b3"/><stop offset="0.62" stop-color="#0457a7"/><stop offset="0.75" stop-color="#084296"/><stop offset="0.88" stop-color="#0c2780"/><stop offset="1" stop-color="#120665"/><stop offset="1" stop-color="#120564"/></radialGradient></defs><path class="cls-1" d="M298.62,671.85a28.94,28.94,0,0,1-14.3-3.79L17.91,516.5A28.93,28.93,0,0,1,3.29,491.18l2-306.51A29,29,0,0,1,19.7,159.81L288.71,4.5a28.93,28.93,0,0,1,28.77-.1L583.89,156a29,29,0,0,1,14.62,25.33l-2,306.5a29.07,29.07,0,0,1-14.46,24.87L313.08,668A29,29,0,0,1,298.62,671.85Z"/><path class="cls-2" d="M303.17.12v1h0a28.53,28.53,0,0,1,14.06,3.72L583.64,156.4A28.46,28.46,0,0,1,598,181.29l-2,306.5a28.53,28.53,0,0,1-14.21,24.43l-269,155.32a28.46,28.46,0,0,1-28.26.09L18.15,516.07A28.46,28.46,0,0,1,3.79,491.18l2-306.5A28.53,28.53,0,0,1,20,160.24L289,4.93a28.49,28.49,0,0,1,14.21-3.81v-1m0,0a29.37,29.37,0,0,0-14.71,3.94l-269,155.32A29.4,29.4,0,0,0,4.74,184.67L2.79,491.17a29.41,29.41,0,0,0,14.87,25.76L284.07,668.5a29.46,29.46,0,0,0,29.26-.1l269-155.31a29.44,29.44,0,0,0,14.71-25.3l2-306.5a29.42,29.42,0,0,0-14.87-25.76L317.72,4A29.36,29.36,0,0,0,303.17.12Z"/><polyline class="cls-3" points="376.63 165.02 300.75 121.41 110.75 229.55 110.75 448.82 300.15 558.76 300.45 559.06 491.04 449.12 490.75 448.82 490.75 229.55 300.15 338.89 300.15 421.94"/></svg>